<?xml version="1.0" standalone="no"?>
<!DOCTYPE svg PUBLIC "-//W3C//DTD SVG 20010904//EN"
 "http://www.w3.org/TR/2001/REC-SVG-20010904/DTD/svg10.dtd">
<svg version="1.0" xmlns="http://www.w3.org/2000/svg"
 width="323.000000pt" height="326.000000pt" viewBox="0 0 323.000000 326.000000"
 preserveAspectRatio="xMidYMid meet">

<g transform="translate(0.000000,326.000000) scale(0.100000,-0.100000)"
fill="#000000" stroke="none">
<path d="M432 2998 c-8 -8 -12 -55 -12 -147 0 -149 -1 -144 72 -232 l37 -45
-34 -92 c-19 -51 -35 -100 -35 -110 0 -10 16 -42 35 -72 19 -30 35 -60 35 -66
0 -6 -14 -36 -31 -67 -36 -67 -36 -67 40 -199 l56 -98 58 -16 c32 -9 62 -24
67 -34 5 -9 23 -79 39 -155 17 -76 32 -139 33 -140 37 -28 103 -56 122 -51 13
3 65 33 115 67 110 73 150 83 174 45 10 -14 24 -26 33 -26 24 0 91 37 200 111
68 47 110 69 130 69 38 0 93 -46 150 -123 56 -75 59 -118 13 -189 -18 -28 -34
-67 -37 -93 -4 -42 -6 -44 -41 -47 -35 -3 -36 -4 -45 -58 -6 -36 -17 -61 -30
-71 -12 -9 -35 -30 -52 -47 -17 -16 -37 -31 -44 -34 -30 -10 -8 -215 37 -338
76 -206 242 -370 456 -450 70 -26 194 -50 262 -50 297 0 583 206 670 482 14
43 26 103 27 134 2 54 5 59 58 113 174 174 212 509 84 752 -112 212 -379 391
-620 414 -121 12 -307 -28 -355 -76 -29 -29 -72 -47 -128 -55 -28 -4 -54 -11
-57 -15 -3 -5 -25 -9 -49 -9 -24 0 -81 -13 -127 -30 -107 -38 -182 -56 -290
-70 -98 -12 -128 -4 -128 33 0 36 -28 66 -73 78 -118 31 -187 62 -217 95 -16
19 -30 41 -30 48 0 19 31 43 67 51 86 18 109 128 61 284 -25 81 -59 132 -109
166 -22 14 -61 48 -88 76 -41 43 -50 58 -55 102 -9 64 -19 77 -62 77 -18 0
-43 4 -56 10 -44 19 -298 110 -306 110 -4 0 -13 -5 -20 -12z m368 -148 c25 0
28 -4 34 -49 5 -41 15 -59 57 -105 28 -30 73 -72 100 -92 59 -43 90 -98 113
-201 25 -112 9 -166 -55 -183 -48 -13 -89 -50 -89 -80 0 -67 70 -125 197 -165
114 -35 116 -36 124 -75 12 -55 29 -65 117 -62 97 3 203 24 337 68 118 38 143
41 190 18 24 -11 37 -27 50 -62 27 -73 42 -92 73 -92 33 -1 54 -16 75 -55 l15
-31 -98 -84 c-55 -47 -99 -92 -99 -100 -1 -25 42 -69 81 -82 22 -8 46 -27 60
-48 25 -37 58 -52 152 -71 54 -10 66 -17 116 -70 31 -32 62 -59 67 -59 13 0
94 -66 105 -84 5 -9 -28 -5 -105 11 -246 51 -536 67 -731 39 -79 -11 -87 -11
-68 2 15 10 22 25 22 47 0 59 7 65 68 65 53 0 54 1 39 18 -27 30 -21 78 18
142 56 93 46 160 -43 269 -19 23 -53 57 -76 73 -65 47 -110 38 -238 -49 -57
-38 -117 -77 -133 -86 -29 -15 -32 -14 -55 10 -21 21 -31 24 -68 20 -28 -3
-60 -16 -86 -35 -22 -17 -69 -48 -104 -68 l-63 -36 -38 25 c-37 25 -38 27 -66
159 -15 73 -31 142 -35 153 -5 14 -28 26 -73 40 l-65 20 -57 98 -56 98 38 68
37 68 -42 66 c-49 74 -49 74 4 200 l32 77 -59 73 -59 72 0 121 0 122 156 -59
c86 -32 169 -59 184 -59z m1768 -815 c184 -55 59 -193 -155 -171 -103 11 -163
46 -163 98 0 70 185 112 318 73z m-588 -90 c-7 -8 -18 -15 -24 -15 -6 0 -2 7
8 15 25 19 32 19 16 0z m205 -192 c373 -184 782 -618 725 -768 -11 -28 -32
-40 -55 -31 -14 5 -13 9 5 33 17 25 19 33 9 68 -15 54 -81 153 -164 248 -114
130 -362 325 -505 398 -25 12 -60 35 -78 51 -19 16 -44 28 -60 28 -26 0 -52
15 -52 31 0 13 95 -18 175 -58z m-161 -237 c8 -14 51 -62 95 -108 43 -46 78
-84 76 -86 -12 -12 -74 33 -142 105 -65 67 -81 89 -72 100 16 19 24 16 43 -11z
m263 -435 c220 -41 432 -105 552 -165 27 -14 53 -30 56 -36 13 -20 -27 -161
-67 -243 -31 -60 -60 -100 -113 -152 -233 -230 -550 -268 -851 -100 -139 77
-269 240 -320 399 -26 84 -50 254 -37 266 8 7 163 44 228 54 17 2 122 3 235 1
153 -3 233 -9 317 -24z"/>
<path d="M1107 2973 c-2 -4 -17 -70 -32 -147 -32 -159 -36 -140 61 -303 31
-51 69 -130 85 -175 40 -108 52 -122 87 -99 12 7 41 196 42 267 0 11 -33 67
-74 125 -70 98 -75 108 -86 184 -22 147 -23 150 -52 153 -14 2 -28 0 -31 -5z
m132 -348 c78 -109 77 -104 58 -245 l-12 -85 -28 75 c-16 41 -38 91 -51 110
-12 19 -44 74 -70 123 l-48 87 23 116 23 116 16 -98 c17 -97 19 -101 89 -199z"/>
<path d="M1373 1588 l-123 -81 -72 22 c-40 11 -81 21 -91 21 -9 0 -74 -45
-143 -101 -110 -88 -125 -104 -122 -127 3 -26 6 -27 78 -33 178 -15 250 -11
344 20 48 16 92 33 96 37 32 33 210 282 210 295 0 16 -19 29 -43 29 -7 0 -67
-37 -134 -82z m30 -96 l-88 -119 -80 -27 c-71 -23 -97 -26 -201 -25 -65 1
-132 5 -149 9 -16 4 -25 8 -20 9 6 0 21 11 35 24 14 12 57 47 95 77 39 30 73
59 77 64 6 10 132 -16 168 -35 10 -5 52 18 130 71 63 43 116 76 118 75 2 -2
-36 -57 -85 -123z"/>
</g>
</svg>
